<?xml version="1.0" encoding="UTF-8"?>
<svg width="152px" height="26px" viewBox="0 0 152 26" version="1.1" xmlns="http://www.w3.org/2000/svg" xmlns:xlink="http://www.w3.org/1999/xlink">
    <!-- Generator: Sketch 50.2 (55047) - http://www.bohemiancoding.com/sketch -->
    <title>logo</title>
    <desc>Created with Sketch.</desc>
    <defs></defs>
    <g id="Page-1" stroke="none" stroke-width="1" fill="none" fill-rule="evenodd">
        <g id="design-guideline" transform="translate(-268.000000, -813.000000)" fill="#FFFFFF">
            <path d="M268.395552,826.938889 C268.395552,826.625924 268.389559,826.090282 268.377573,825.331944 C268.365586,824.573607 268.359593,823.773152 268.359593,822.930556 C268.359593,822.063885 268.3536,821.257411 268.341613,820.511111 C268.329627,819.764811 268.323634,819.247224 268.323634,818.958333 C268.323634,818.139811 268.299661,817.237042 268.251715,816.25 C268.203769,815.262958 268.119865,814.179636 268,813 C268.647271,813.072223 269.372443,813.144444 270.175538,813.216667 C270.978633,813.288889 271.727778,813.325 272.422995,813.325 C273.094239,813.325 273.843384,813.294908 274.670452,813.234722 C275.49752,813.174537 276.222692,813.096297 276.84599,813 C276.774071,813.842597 276.71414,814.721292 276.666194,815.636111 C276.618248,816.55093 276.576295,817.459718 276.540336,818.3625 C276.504376,819.265282 276.480404,820.13194 276.468417,820.9625 C276.456431,821.79306 276.450438,822.557404 276.450438,823.255556 C277.001816,823.27963 277.613119,823.297685 278.284362,823.309722 C278.955606,823.321759 279.650813,823.327778 280.370002,823.327778 C280.9933,823.327778 281.652548,823.315741 282.347764,823.291667 C283.042981,823.267592 283.726201,823.255556 284.397445,823.255556 C284.397445,822.53333 284.391452,821.744912 284.379465,820.890278 C284.367479,820.035644 284.343506,819.162967 284.307547,818.272222 C284.271587,817.381477 284.229635,816.484727 284.181689,815.581944 C284.133743,814.679162 284.073812,813.818523 284.001893,813 C284.649163,813.072223 285.380329,813.144444 286.19541,813.216667 C287.010492,813.288889 287.753644,813.325 288.424888,813.325 C289.096131,813.325 289.845276,813.294908 290.672344,813.234722 C291.499413,813.174537 292.224585,813.096297 292.847883,813 C292.704045,814.516674 292.602161,816.081473 292.542229,817.694444 C292.482296,819.307415 292.45233,821.185174 292.45233,823.327778 C292.45233,824.940749 292.464317,826.415271 292.48829,827.751389 C292.512263,829.087507 292.542228,830.36342 292.578188,831.579167 C292.614147,832.794913 292.650106,833.986568 292.686066,835.154167 C292.722025,836.321765 292.763977,837.555549 292.811923,838.855556 C291.277652,838.638888 289.707444,838.530556 288.101254,838.530556 C287.406037,838.530556 286.716824,838.560648 286.033594,838.620833 C285.350363,838.681019 284.66115,838.759259 283.965933,838.855556 C284.061825,838.061107 284.139736,837.104172 284.199669,835.984722 C284.259601,834.865272 284.301553,833.733802 284.325526,832.590278 C284.349499,831.446754 284.367479,830.363431 284.379465,829.340278 C284.391452,828.317125 284.397445,827.492596 284.397445,826.866667 C283.750174,826.866667 283.090927,826.85463 282.419683,826.830556 C281.748439,826.806481 281.077205,826.794444 280.405962,826.794444 C279.782664,826.794444 279.123416,826.800463 278.4282,826.8125 C277.732983,826.824537 277.073735,826.842592 276.450438,826.866667 C276.450438,827.51667 276.456431,828.353236 276.468417,829.376389 C276.480404,830.399542 276.498383,831.482865 276.522356,832.626389 C276.546329,833.769913 276.582288,834.895365 276.630234,836.002778 C276.67818,837.110191 276.738112,838.061107 276.810031,838.855556 C276.066868,838.735185 275.323716,838.650926 274.580554,838.602778 C273.837391,838.554629 273.082253,838.530556 272.315117,838.530556 C271.404143,838.530556 270.613046,838.560648 269.941803,838.620833 C269.270559,838.681019 268.623298,838.759259 268,838.855556 L268.143837,837.05 C268.191783,836.520368 268.233735,835.852319 268.269695,835.045833 C268.305654,834.239348 268.329627,833.37269 268.341613,832.445833 C268.3536,831.518977 268.365586,830.574079 268.377573,829.611111 C268.389559,828.648143 268.395552,827.757411 268.395552,826.938889 Z M303.348001,833.258333 C303.348001,833.884262 303.449885,834.431942 303.653655,834.901389 C303.857426,835.370836 304.258967,835.605556 304.858292,835.605556 C305.409671,835.605556 305.835185,835.449076 306.134847,835.136111 C306.43451,834.823147 306.584339,834.425928 306.584339,833.944444 L306.584339,829.322222 C305.889122,829.587038 305.325765,829.833795 304.894251,830.0625 C304.462737,830.291205 304.133114,830.549999 303.90537,830.838889 C303.677627,831.127779 303.527798,831.458794 303.455879,831.831944 C303.38396,832.205094 303.348001,832.680553 303.348001,833.258333 Z M296.228058,834.052778 C296.228058,833.08981 296.389873,832.289355 296.713508,831.651389 C297.037144,831.013423 297.492624,830.47778 298.079962,830.044444 C298.6673,829.611109 299.362507,829.250001 300.165602,828.961111 C300.968697,828.672221 301.837705,828.395372 302.772652,828.130556 C303.611707,827.913888 304.288934,827.727316 304.804353,827.570833 C305.319772,827.414351 305.715321,827.251853 305.99101,827.083333 C306.2667,826.914814 306.452487,826.722223 306.548379,826.505556 C306.644271,826.288888 306.692217,826.012039 306.692217,825.675 C306.692217,825.169442 306.614306,824.754168 306.458481,824.429167 C306.302657,824.104165 306.08091,823.85139 305.793234,823.670833 C305.505558,823.490277 305.169941,823.369908 304.786373,823.309722 C304.402805,823.249537 303.995271,823.219444 303.563757,823.219444 C302.772648,823.219444 302.01751,823.363887 301.29832,823.652778 C300.579131,823.941668 300.015774,824.447219 299.608233,825.169444 L298.565413,825.097222 L297.846227,821.883333 C299.140768,821.185182 300.405325,820.667594 301.639934,820.330556 C302.874543,819.993517 304.23499,819.825 305.721315,819.825 C307.087776,819.825 308.268428,819.98148 309.263307,820.294444 C310.258187,820.607409 311.079249,821.022683 311.72652,821.540278 C312.373791,822.057873 312.853243,822.665737 313.164892,823.363889 C313.476541,824.062041 313.632363,824.796292 313.632363,825.566667 C313.632363,826.024076 313.620377,826.571756 313.596404,827.209722 C313.572431,827.847688 313.554452,828.497682 313.542465,829.159722 C313.530479,829.821763 313.512499,830.459719 313.488526,831.073611 C313.464553,831.687503 313.452567,832.211109 313.452567,832.644444 C313.452567,833.07778 313.45856,833.481017 313.470546,833.854167 C313.482533,834.227317 313.530478,834.558332 313.614384,834.847222 C313.698289,835.136113 313.824146,835.358796 313.991956,835.515278 C314.159767,835.67176 314.399494,835.75 314.711143,835.75 C315.142657,835.75 315.58615,835.617594 316.041637,835.352778 C316.017664,835.545371 315.993691,835.725925 315.969718,835.894444 C315.945745,836.062964 315.933759,836.243518 315.933759,836.436111 C315.933759,836.60463 315.945745,836.767129 315.969718,836.923611 C315.993691,837.080093 316.017664,837.242592 316.041637,837.411111 C315.370393,837.916669 314.579296,838.307869 313.668323,838.584722 C312.757349,838.861575 311.918307,839 311.151171,839 C310.551846,839 310.036435,838.957871 309.604921,838.873611 C309.173407,838.789351 308.801831,838.656945 308.490182,838.476389 C308.178533,838.295832 307.902848,838.085186 307.663118,837.844444 C307.423388,837.603703 307.207634,837.362964 307.01585,837.122222 C306.36858,837.748151 305.595462,838.217591 304.696475,838.530556 C303.797488,838.84352 302.892521,839 301.981547,839 C301.166465,839 300.405334,838.915742 299.698131,838.747222 C298.990928,838.578703 298.379626,838.289817 297.864206,837.880556 C297.348787,837.471294 296.947245,836.953707 296.659569,836.327778 C296.371894,835.701849 296.228058,834.943523 296.228058,834.052778 Z M326.865389,831.380556 C327.224984,830.297217 327.548615,829.298153 327.836291,828.383333 C328.123966,827.468514 328.393659,826.571764 328.645375,825.693056 C328.897091,824.814347 329.154797,823.911579 329.4185,822.984722 C329.682203,822.057866 329.969875,821.040746 330.281524,819.933333 C330.665091,820.02963 331.04266,820.10787 331.414242,820.168056 C331.785823,820.228241 332.175378,820.258333 332.582919,820.258333 C333.350055,820.258333 334.129166,820.150001 334.920274,819.933333 C333.60176,823.111127 332.355183,826.246744 331.180506,829.340278 C330.00583,832.433812 328.879116,835.605539 327.800331,838.855556 C327.320871,838.759259 326.853405,838.681019 326.397918,838.620833 C325.942431,838.560648 325.474965,838.530556 324.995505,838.530556 C324.468099,838.530556 323.952688,838.560648 323.449255,838.620833 C322.945822,838.681019 322.43041,838.759259 321.903004,838.855556 C321.735194,838.277775 321.567385,837.706021 321.399574,837.140278 C321.231763,836.574534 321.051968,836.002781 320.860185,835.425 C320.308806,833.667584 319.70949,831.946305 319.062219,830.261111 C318.414948,828.575917 317.779673,826.866675 317.156376,825.133333 C316.820754,824.266662 316.473151,823.400004 316.113556,822.533333 C315.753961,821.666662 315.442317,820.800004 315.178614,819.933333 C315.825884,820.053704 316.533077,820.137963 317.300213,820.186111 C318.067349,820.23426 318.798514,820.258333 319.493731,820.258333 C320.212921,820.258333 320.938093,820.23426 321.669269,820.186111 C322.400445,820.137963 323.137604,820.053704 323.880767,819.933333 C324.288307,821.594453 324.695842,823.219437 325.103383,824.808333 C325.510924,826.39723 325.942431,828.022214 326.397918,829.683333 L326.865389,831.380556 Z M352.86397,834.377778 C352.696159,834.690742 352.552323,834.967591 352.432458,835.208333 C352.312593,835.449075 352.204716,835.689814 352.108824,835.930556 C352.012932,836.171298 351.923035,836.418054 351.839129,836.670833 C351.755224,836.923612 351.665327,837.218517 351.569435,837.555556 C350.610515,838.012965 349.567705,838.349999 348.440975,838.566667 C347.314244,838.783334 346.211503,838.891667 345.132718,838.891667 C343.718312,838.891667 342.483721,838.747224 341.428909,838.458333 C340.374098,838.169443 339.469131,837.772225 338.713982,837.266667 C337.958832,836.761109 337.341537,836.1713 336.862077,835.497222 C336.382617,834.823145 335.999055,834.131022 335.711379,833.420833 C335.423703,832.710645 335.225929,832.000467 335.118051,831.290278 C335.010172,830.580089 334.956234,829.924077 334.956234,829.322222 C334.956234,828.022216 335.148015,826.79445 335.531583,825.638889 C335.915151,824.483328 336.50248,823.478245 337.293589,822.623611 C338.084698,821.768977 339.079562,821.088891 340.278211,820.583333 C341.476861,820.077775 342.903233,819.825 344.557369,819.825 C345.995749,819.825 347.356196,820.101849 348.638751,820.655556 C349.921306,821.209262 350.994081,822.063883 351.857109,823.219444 C352.576299,824.254635 353.019793,825.356013 353.187604,826.523611 C353.355414,827.69121 353.463291,828.816661 353.511237,829.9 C353.031777,829.875926 352.516366,829.851852 351.964987,829.827778 C351.413608,829.803704 350.874224,829.791667 350.346818,829.791667 C347.757735,829.791667 345.16869,829.827777 342.579607,829.9 C342.579607,830.622226 342.663512,831.314349 342.831322,831.976389 C342.999133,832.638429 343.268826,833.234257 343.640407,833.763889 C344.011988,834.293521 344.485448,834.714813 345.0608,835.027778 C345.636151,835.340742 346.319371,835.497222 347.11048,835.497222 C347.494048,835.497222 347.913569,835.443056 348.369056,835.334722 C348.824543,835.226388 349.268037,835.081945 349.699551,834.901389 C350.131064,834.720832 350.544592,834.504168 350.940147,834.251389 C351.335701,833.99861 351.677311,833.715742 351.964987,833.402778 L352.86397,834.377778 Z M346.643009,827.372222 C346.643009,826.794442 346.637016,826.204633 346.62503,825.602778 C346.613043,825.000923 346.547118,824.453243 346.427253,823.959722 C346.307388,823.466201 346.115607,823.062965 345.851904,822.75 C345.588202,822.437035 345.204639,822.280556 344.701207,822.280556 C344.173801,822.280556 343.766266,822.443054 343.47859,822.768056 C343.190914,823.093057 342.981154,823.502312 342.849302,823.995833 C342.717451,824.489354 342.63954,825.037034 342.615567,825.638889 C342.591594,826.240744 342.579607,826.818516 342.579607,827.372222 L346.643009,827.372222 Z M370.05252,826.975 C369.33333,826.926852 368.608158,826.890741 367.876981,826.866667 C367.145805,826.842592 366.420633,826.830556 365.701443,826.830556 C365.701443,827.552781 365.707436,828.45555 365.719423,829.538889 C365.731409,830.622228 365.755382,831.735642 365.791341,832.879167 C365.827301,834.022691 365.869253,835.130087 365.917199,836.201389 C365.965145,837.272691 366.025077,838.157404 366.096996,838.855556 C364.634643,838.638888 363.160326,838.530556 361.674,838.530556 C360.978784,838.530556 360.271591,838.560648 359.552401,838.620833 C358.833211,838.681019 358.126019,838.759259 357.430802,838.855556 C357.57464,836.255543 357.67053,833.697698 357.718476,831.181944 C357.766422,828.666191 357.790395,826.108346 357.790395,823.508333 C357.790395,821.750917 357.754436,819.999546 357.682517,818.254167 C357.610598,816.508788 357.514708,814.757416 357.394843,813 C358.97706,813.120371 360.517302,813.204629 362.015614,813.252778 C363.513926,813.300926 364.910332,813.325 366.204873,813.325 C367.499415,813.325 368.865855,813.300926 370.304235,813.252778 C371.742614,813.204629 373.109054,813.120371 374.403596,813 C374.379623,813.337039 374.343664,813.668054 374.295718,813.993056 C374.247772,814.318057 374.223799,814.649072 374.223799,814.986111 C374.223799,815.32315 374.241779,815.648147 374.277738,815.961111 C374.313698,816.274076 374.35565,816.599072 374.403596,816.936111 C373.612487,816.887963 372.785431,816.845834 371.922404,816.809722 C371.059376,816.773611 370.23232,816.7375 369.441211,816.701389 C368.650103,816.665278 367.930924,816.641204 367.283653,816.629167 C366.636382,816.61713 366.144943,816.611111 365.809321,816.611111 C365.761375,817.838895 365.731409,819.03055 365.719423,820.186111 C365.707436,821.341672 365.701443,822.533327 365.701443,823.761111 C365.989119,823.761111 366.504531,823.755093 367.247693,823.743056 C367.990856,823.731018 368.799933,823.712963 369.674947,823.688889 C370.549961,823.664815 371.394996,823.628704 372.210078,823.580556 C373.02516,823.532407 373.648448,823.472223 374.079962,823.4 C374.032016,823.664816 373.990064,823.977776 373.954105,824.338889 C373.918145,824.700002 373.900166,825.037035 373.900166,825.35 C373.900166,825.63889 373.918145,825.963887 373.954105,826.325 C373.990064,826.686113 374.032016,826.999073 374.079962,827.263889 L370.05252,826.975 Z M377.711852,827.3 C377.711852,825.638881 377.717846,824.248617 377.729832,823.129167 C377.741819,822.009717 377.699866,820.94445 377.603974,819.933333 C378.299191,820.005556 379.000391,820.077777 379.707594,820.15 C380.414797,820.222223 381.115997,820.258333 381.811214,820.258333 C382.434511,820.258333 383.045814,820.228241 383.645138,820.168056 C384.244463,820.10787 384.855765,820.02963 385.479063,819.933333 C385.431117,820.655559 385.389165,821.329627 385.353206,821.955556 C385.317246,822.581485 385.28728,823.267589 385.263307,824.013889 C385.239334,824.760189 385.221355,825.602773 385.209368,826.541667 C385.197382,827.48056 385.191389,828.636104 385.191389,830.008333 C385.191389,830.586114 385.203375,831.151849 385.227348,831.705556 C385.251321,832.259262 385.323239,832.740739 385.443104,833.15 C385.562969,833.559261 385.760743,833.890277 386.036432,834.143056 C386.312122,834.395835 386.701677,834.522222 387.20511,834.522222 C387.708543,834.522222 388.098098,834.365742 388.373788,834.052778 C388.649477,833.739813 388.847251,833.342595 388.967116,832.861111 C389.086981,832.379627 389.158899,831.843984 389.182872,831.254167 C389.206845,830.664349 389.218831,830.080558 389.218831,829.502778 C389.218831,827.913881 389.212838,826.282879 389.200852,824.609722 C389.188865,822.936566 389.12294,821.377785 389.003075,819.933333 C389.698292,820.02963 390.375519,820.10787 391.034776,820.168056 C391.694034,820.228241 392.371261,820.258333 393.066477,820.258333 C394.337046,820.258333 395.619582,820.150001 396.914123,819.933333 C396.866178,820.294446 396.818232,820.757868 396.770286,821.323611 C396.72234,821.889355 396.686381,822.521293 396.662408,823.219444 C396.638435,823.917596 396.620456,824.64583 396.608469,825.404167 C396.596483,826.162504 396.59049,826.926848 396.59049,827.697222 L396.59049,830.477778 C396.59049,832.355565 396.608469,833.950456 396.644429,835.2625 C396.680388,836.574544 396.758299,837.772217 396.878164,838.855556 C396.326785,838.783333 395.697504,838.711111 394.9903,838.638889 C394.283097,838.566666 393.60587,838.530556 392.958599,838.530556 C392.359275,838.530556 391.753966,838.566666 391.142654,838.638889 C390.531343,838.711111 389.926034,838.783333 389.326709,838.855556 C389.422601,837.916662 389.494519,836.989819 389.542465,836.075 C389.063005,836.580558 388.613518,837.013887 388.193991,837.375 C387.774464,837.736113 387.342956,838.031017 386.899456,838.259722 C386.455956,838.488427 385.97051,838.644907 385.443104,838.729167 C384.915698,838.813426 384.29241,838.855556 383.57322,838.855556 C381.607434,838.855556 380.133117,838.325931 379.150225,837.266667 C378.167332,836.207402 377.675893,834.702788 377.675893,832.752778 L377.675893,831.488889 C377.675893,831.007405 377.681886,830.51991 377.693873,830.026389 C377.705859,829.532868 377.711852,829.05741 377.711852,828.6 L377.711852,827.3 Z M401.049444,826.613889 C401.049444,825.313882 401.025471,824.158338 400.977525,823.147222 C400.929579,822.136106 400.845675,821.06482 400.72581,819.933333 C401.325135,820.02963 401.954417,820.10787 402.613674,820.168056 C403.272931,820.228241 403.914199,820.258333 404.537497,820.258333 C405.808066,820.258333 407.054643,820.150001 408.277265,819.933333 C408.253292,820.872227 408.181374,821.811106 408.061509,822.75 C408.493023,822.268516 408.918537,821.847224 409.338065,821.486111 C409.757592,821.124998 410.195093,820.818057 410.65058,820.565278 C411.106066,820.312499 411.585519,820.125927 412.088952,820.005556 C412.592385,819.885185 413.167728,819.825 413.814999,819.825 C415.82873,819.825 417.350992,820.348606 418.381831,821.395833 C419.41267,822.443061 419.928081,823.977768 419.928081,826 L419.928081,827.372222 C419.928081,827.87778 419.922088,828.395368 419.910102,828.925 C419.898115,829.454632 419.892122,829.97222 419.892122,830.477778 L419.892122,833.402778 C419.892122,834.293523 419.898115,835.232402 419.910102,836.219444 C419.922088,837.206486 419.952054,838.085181 420,838.855556 C419.352729,838.759259 418.705468,838.681019 418.058197,838.620833 C417.410927,838.560648 416.763665,838.530556 416.116395,838.530556 C415.493097,838.530556 414.833849,838.560648 414.138633,838.620833 C413.443416,838.681019 412.784168,838.759259 412.160871,838.855556 C412.256763,837.049991 412.32868,835.280564 412.376626,833.547222 C412.424572,831.81388 412.448545,830.044453 412.448545,828.238889 C412.448545,827.757405 412.436559,827.287965 412.412586,826.830556 C412.388613,826.373146 412.310702,825.951854 412.17885,825.566667 C412.046999,825.18148 411.849225,824.874538 411.585522,824.645833 C411.321819,824.417128 410.950243,824.302778 410.470783,824.302778 C409.943377,824.302778 409.541836,824.459258 409.266146,824.772222 C408.990457,825.085187 408.786689,825.494442 408.654838,826 C408.522986,826.505558 408.445075,827.08333 408.421102,827.733333 C408.397129,828.383337 408.385143,829.045367 408.385143,829.719444 L408.385143,832.969444 C408.385143,834.365748 408.403123,835.509255 408.439082,836.4 C408.475042,837.290745 408.52898,838.109256 408.600899,838.855556 C407.905682,838.807407 407.228455,838.741204 406.569198,838.656944 C405.909941,838.572685 405.232714,838.530556 404.537497,838.530556 C403.890226,838.530556 403.248958,838.566666 402.613674,838.638889 C401.97839,838.711111 401.337122,838.783333 400.689851,838.855556 C400.833689,837.314807 400.929579,835.762045 400.977525,834.197222 C401.025471,832.6324 401.049444,831.055563 401.049444,829.466667 L401.049444,826.613889 Z" id="logo"></path>
        </g>
    </g>
</svg>